<svg xmlns="http://www.w3.org/2000/svg" xmlns:xlink="http://www.w3.org/1999/xlink" viewBox="0,0,256,256" width="24px" height="24px" fill-rule="nonzero"><g fill="#bc8f8f" fill-rule="nonzero" stroke="none" stroke-width="1" stroke-linecap="butt" stroke-linejoin="miter" stroke-miterlimit="10" stroke-dasharray="" stroke-dashoffset="0" font-family="none" font-weight="none" font-size="none" text-anchor="none" style="mix-blend-mode: normal"><g transform="scale(10.66667,10.66667)"><path d="M6,2c-1.103,0 -2,0.897 -2,2v16c0,1.103 0.897,2 2,2h12c1.103,0 2,-0.897 2,-2v-16c0,-1.103 -0.897,-2 -2,-2zM6,4h12v16l-12,0.00195zM12,6c-1.682,0 -3,1.317 -3,3c0,1.683 1.318,3 3,3c1.682,0 3,-1.317 3,-3c0,-1.683 -1.318,-3 -3,-3zM12,8c0.58,0 1,0.421 1,1c0,0.579 -0.42,1 -1,1c-0.58,0 -1,-0.421 -1,-1c0,-0.579 0.42,-1 1,-1zM12,13c-2.851,0 -5,1.45577 -5,3.38477v1.61523h10v-1.61523c0,-1.929 -2.149,-3.38477 -5,-3.38477zM12,15c1.47,0 2.48952,0.504 2.85352,1h-5.70703c0.363,-0.496 1.38352,-1 2.85352,-1z"></path></g></g></svg>